<mxfile host="app.diagrams.net" modified="2024-03-20T09:41:06.826Z" agent="Mozilla/5.0 (Windows NT 10.0; Win64; x64) AppleWebKit/537.36 (KHTML, like Gecko) Chrome/120.0.0.0 YaBrowser/24.1.0.0 Safari/537.36" version="22.1.18" etag="wz9R9LWEiOl98Mrya2Uw" type="github">
  <diagram name="Страница — 1" id="QK3ZJjT1gv3YByOsXf1M">
    <mxGraphModel>
      <root>
        <mxCell id="0" />
        <mxCell id="1" parent="0" />
      </root>
    </mxGraphModel>
  </diagram>
</mxfile>
